<?xml version="1.0" standalone="no"?>
<!DOCTYPE svg PUBLIC "-//W3C//DTD SVG 20010904//EN"
 "http://www.w3.org/TR/2001/REC-SVG-20010904/DTD/svg10.dtd">
<svg version="1.0" xmlns="http://www.w3.org/2000/svg"
 width="500.000000pt" height="500.000000pt" viewBox="0 0 500.000000 500.000000"
 preserveAspectRatio="xMidYMid meet">

<g transform="translate(0.000000,500.000000) scale(0.100000,-0.100000)"
fill="#000000" stroke="none">
<path d="M3970 4740 c-24 -6 -137 -41 -250 -79 -286 -98 -415 -121 -665 -121
-176 0 -355 21 -611 70 -343 67 -497 70 -611 14 -29 -14 -53 -29 -53 -33 0 -3
13 -14 29 -24 49 -29 136 -131 216 -254 43 -65 96 -138 119 -161 81 -86 200
-126 357 -121 l90 3 52 -52 52 -52 -242 -242 -243 -243 -53 53 -53 53 4 83 c6
119 -17 218 -71 299 -34 49 -61 75 -137 125 -52 35 -119 81 -147 103 l-53 38
0 -102 c0 -56 7 -196 15 -312 17 -248 18 -354 4 -415 -14 -64 -63 -134 -116
-170 -26 -16 -40 -31 -32 -31 8 -1 61 -4 119 -8 l105 -6 -90 -15 c-60 -10
-157 -15 -290 -14 -177 0 -215 3 -328 27 -251 53 -303 32 -314 -123 -14 -176
116 -731 223 -957 39 -83 74 -109 187 -144 37 -12 67 -26 67 -32 0 -7 -47
-169 -105 -362 -94 -317 -102 -351 -88 -363 26 -19 61 -14 77 10 8 13 81 172
162 353 80 182 150 334 154 338 6 7 535 -56 568 -68 9 -3 12 -49 12 -184 0
-168 1 -180 19 -186 11 -3 31 -3 45 1 28 7 27 5 68 221 l23 123 30 0 c17 0 76
-7 132 -15 57 -8 109 -12 117 -9 8 3 17 1 21 -5 3 -6 15 -11 25 -11 12 0 22
-9 25 -22 2 -13 27 -202 55 -421 28 -219 53 -404 57 -412 7 -19 82 -20 108 -1
18 13 18 26 7 387 -7 206 -12 404 -12 441 l0 67 83 25 c105 32 419 108 424
102 2 -2 65 -147 139 -322 74 -176 140 -324 147 -330 16 -15 87 -6 94 12 3 8
-43 170 -102 360 -107 346 -110 363 -72 364 4 0 30 21 57 46 42 39 56 62 88
148 83 215 264 784 361 1136 148 539 268 1113 258 1242 -5 78 -32 136 -73 160
-37 22 -125 30 -184 18z m80 -106 c0 -3 -11 -15 -25 -26 -14 -11 -34 -37 -45
-59 -24 -46 -62 -200 -80 -321 -7 -49 -17 -88 -22 -88 -13 0 0 196 18 294 18
93 42 144 84 180 28 23 70 35 70 20z m-1820 -108 c439 -111 956 -124 1368 -35
115 25 138 21 159 -29 21 -49 14 -147 -31 -417 -19 -115 -48 -320 -65 -455
-45 -350 -51 -376 -45 -185 7 203 26 410 65 692 16 122 29 250 27 285 l-3 63
-35 -1 c-19 0 -85 -10 -146 -22 -381 -72 -862 -42 -1284 80 -88 25 -169 56
-150 58 3 0 66 -15 140 -34z m578 -709 l82 -82 -245 -245 -245 -245 -80 80
c-44 44 -80 84 -80 90 0 10 470 485 480 485 3 0 42 -37 88 -83z m442 -451 c0
-13 -61 -76 -73 -76 -5 0 -41 28 -81 63 l-71 62 63 -70 c34 -38 62 -75 62 -80
0 -20 -58 -68 -72 -59 -7 4 -44 35 -83 68 -38 33 -81 69 -95 80 -13 12 18 -25
69 -81 l93 -103 82 0 c44 0 144 -7 221 -15 279 -29 364 -15 398 65 l11 25 4
-23 c2 -13 -4 -34 -12 -47 -45 -68 -150 -90 -371 -79 -304 17 -439 0 -566 -67
-142 -76 -226 -229 -244 -449 -8 -95 -75 -573 -81 -579 -2 -2 -4 128 -4 290
l0 295 -64 -4 c-36 -2 -145 5 -243 17 -281 33 -511 51 -744 58 l-216 6 -18
-44 c-38 -94 -13 -310 37 -322 40 -10 526 -75 718 -96 304 -34 338 -38 297
-40 -49 -1 -538 35 -732 55 -243 24 -338 40 -352 59 -36 50 -55 259 -33 362
l11 49 110 42 c354 137 676 189 1016 164 92 -7 181 -14 196 -15 25 -2 30 3 42
38 8 21 28 59 45 84 l32 44 -89 89 -88 88 245 245 245 245 167 -167 c93 -92
168 -172 168 -177z"/>
<path d="M2780 3216 c30 -31 61 -56 68 -56 8 0 -9 21 -38 48 -77 69 -94 74
-30 8z"/>
<path d="M560 410 l0 -150 81 0 c79 0 82 1 115 34 33 33 34 37 34 110 0 82
-16 128 -49 146 -11 5 -56 10 -100 10 l-81 0 0 -150z m147 95 c47 -33 37 -176
-13 -195 -14 -6 -36 -10 -50 -10 -24 0 -24 0 -24 110 l0 110 33 0 c18 0 42 -7
54 -15z"/>
<path d="M850 410 l0 -150 100 0 c93 0 100 1 100 20 0 18 -7 20 -70 20 l-70 0
0 50 0 50 59 0 c50 0 59 3 64 20 5 18 0 20 -59 20 l-64 0 0 40 0 40 70 0 c63
0 70 2 70 20 0 19 -7 20 -100 20 l-100 0 0 -150z"/>
<path d="M1210 410 l0 -150 75 0 c41 0 86 5 99 12 48 21 54 111 9 136 -17 10
-17 11 0 29 9 11 17 35 17 56 0 53 -26 67 -122 67 l-78 0 0 -150z m138 93 c18
-35 -5 -63 -50 -63 -26 0 -28 3 -28 40 0 39 1 40 35 40 23 0 37 -6 43 -17z m6
-119 c36 -35 7 -84 -50 -84 l-34 0 0 50 0 50 34 0 c19 0 42 -7 50 -16z"/>
<path d="M1480 445 c0 -63 5 -125 11 -138 16 -35 54 -52 112 -51 43 0 54 5 79
32 27 32 28 35 28 152 l0 120 -30 0 -30 0 0 -114 c0 -123 -8 -146 -53 -146
-52 1 -67 38 -67 166 0 94 0 94 -25 94 l-25 0 0 -115z"/>
<path d="M1775 410 l0 -150 103 0 c95 0 102 1 102 20 0 17 -8 19 -72 22 l-73
3 0 45 0 45 63 3 c53 3 62 6 62 22 0 16 -9 19 -62 22 l-63 3 -3 38 -3 37 75 0
c69 0 76 2 76 20 0 19 -7 20 -102 20 l-103 0 0 -150z"/>
<path d="M2030 410 l0 -150 30 0 29 0 3 100 3 100 61 -97 c54 -87 64 -98 92
-101 l32 -3 0 150 0 151 -30 0 -30 0 0 -97 c-1 -113 1 -114 -82 21 -42 68 -51
76 -78 76 l-30 0 0 -150z"/>
<path d="M2373 410 l-52 -150 30 0 c22 0 32 6 39 25 9 22 15 25 65 25 50 0 55
-2 61 -25 5 -19 13 -25 35 -25 16 0 29 4 29 8 0 5 -22 71 -49 148 -46 133 -50
139 -77 142 -29 3 -29 1 -81 -148z m116 -42 c1 -14 -7 -18 -32 -18 -19 0 -36
3 -39 6 -5 5 6 49 29 114 6 16 41 -70 42 -102z"/>
<path d="M2730 410 l0 -150 30 0 30 0 0 87 c0 48 4 83 8 77 5 -5 21 -44 36
-86 23 -65 32 -78 50 -78 18 0 26 13 51 85 16 47 33 85 36 85 4 0 6 -38 6 -85
l-2 -85 28 0 27 0 0 151 0 150 -31 -3 c-31 -3 -33 -7 -72 -116 -22 -62 -43
-109 -47 -105 -4 4 -24 56 -44 116 l-38 107 -34 0 -34 0 0 -150z"/>
<path d="M3170 528 c-32 -91 -90 -261 -90 -264 0 -2 13 -4 30 -4 23 0 31 5 36
25 6 23 11 25 64 25 53 0 58 -2 64 -25 5 -20 13 -25 37 -25 21 0 30 4 26 13
-2 6 -26 74 -52 150 -46 132 -49 137 -75 137 -23 0 -30 -6 -40 -32z m62 -105
c9 -31 14 -61 12 -65 -7 -10 -61 -10 -68 0 -6 9 25 122 33 122 3 0 14 -26 23
-57z"/>
<path d="M3390 410 l0 -150 73 0 c39 0 83 6 97 13 75 37 81 220 9 271 -17 11
-46 16 -101 16 l-78 0 0 -150z m150 90 c16 -16 20 -33 20 -85 0 -57 -3 -69
-25 -91 -19 -19 -34 -24 -58 -22 l-32 3 -3 94 c-1 52 -1 100 2 108 8 21 73 16
96 -7z"/>
<path d="M3670 410 l0 -150 105 0 c98 0 105 1 105 20 0 17 -8 19 -72 22 l-73
3 0 45 0 45 63 3 c54 3 62 6 62 22 0 18 -7 20 -65 20 l-65 0 0 40 0 40 75 0
c68 0 75 2 75 20 0 19 -7 20 -105 20 l-105 0 0 -150z"/>
<path d="M3930 410 l0 -150 30 0 30 0 0 60 c0 51 3 60 18 60 28 0 47 -21 66
-72 16 -43 21 -48 48 -48 34 0 33 8 -7 93 -17 36 -19 49 -10 55 39 23 45 93
10 127 -22 22 -32 25 -105 25 l-80 0 0 -150z m131 100 c12 -7 19 -21 19 -40 0
-32 -23 -50 -64 -50 -24 0 -26 3 -26 50 0 47 2 50 26 50 14 0 34 -5 45 -10z"/>
<path d="M4269 533 c-6 -16 -30 -83 -53 -150 l-42 -123 32 0 c26 0 33 5 38 25
6 25 10 26 64 23 50 -3 57 -6 60 -25 3 -19 10 -23 36 -23 l33 0 -51 150 c-49
145 -52 150 -79 150 -21 0 -30 -7 -38 -27z m68 -150 c5 -32 5 -33 -31 -33 -42
0 -43 4 -20 81 l17 54 14 -35 c8 -19 17 -50 20 -67z"/>
</g>
</svg>
